<svg width="24" height="12" viewBox="0 0 24 12" fill="none" xmlns="http://www.w3.org/2000/svg">
<path fill-rule="evenodd" clip-rule="evenodd" d="M0.75 0.75C0.75 0.335786 1.08579 0 1.5 0H22.5C22.9142 0 23.25 0.335786 23.25 0.75C23.25 1.16421 22.9142 1.5 22.5 1.5H1.5C1.08579 1.5 0.75 1.16421 0.75 0.75ZM4.5 6C4.5 5.58579 4.83579 5.25 5.25 5.25H18.75C19.1642 5.25 19.5 5.58579 19.5 6C19.5 6.41421 19.1642 6.75 18.75 6.75H5.25C4.83579 6.75 4.5 6.41421 4.5 6ZM9 11.25C9 10.8358 9.33579 10.5 9.75 10.5H14.25C14.6642 10.5 15 10.8358 15 11.25C15 11.6642 14.6642 12 14.25 12H9.75C9.33579 12 9 11.6642 9 11.25Z" fill="white"/>
</svg>
